<svg xmlns="http://www.w3.org/2000/svg" width="132.333" height="154.789" viewBox="0 0 132.333 154.789"><defs><style>.a{fill:#00a6a4;}</style></defs><g transform="translate(-21.543)"><path class="a" d="M133.651,32.325a16.163,16.163,0,1,0-16.163-16.163A16.181,16.181,0,0,0,133.651,32.325Z" transform="translate(-45.941)"/><path class="a" d="M150.738,117.433V89.2a14.226,14.226,0,0,0-9.8-13.519l-.027-.009L136.3,74.261a1.433,1.433,0,0,0-1.767.879l-9.7,26.615a1.751,1.751,0,0,1-3.291,0l-9.7-26.615A1.433,1.433,0,0,0,110.5,74.2c-.139,0-5.03,1.478-5.03,1.478a14.32,14.32,0,0,0-9.83,13.6v28.154a1.434,1.434,0,0,0,.235.786L106,133.621v38.972a1.433,1.433,0,0,0,1.433,1.433h31.521a1.433,1.433,0,0,0,1.433-1.433V133.621l10.121-15.4a1.425,1.425,0,0,0,.236-.786Z" transform="translate(-35.479 -35.528)"/><path class="a" d="M37.508,237.128a4.591,4.591,0,1,0-8.408-3.693l-7.168,16.322a4.592,4.592,0,0,0,2.357,6.05l16.322,7.168a4.592,4.592,0,0,0,3.693-8.408l-6.173-2.711,27.3-10.636v-9.855L34.8,243.3Z" transform="translate(0 -110.46)"/><path class="a" d="M46.463,161.433a4.591,4.591,0,1,0-3.334-8.556l-16.61,6.472a4.591,4.591,0,0,0-2.611,5.945L30.38,181.9a4.591,4.591,0,1,0,8.556-3.333l-2.448-6.281,29.92,13.14V175.4L40.182,163.882l6.281-2.449Z" transform="translate(-0.982 -73.05)"/><path class="a" d="M227.284,237.463a4.591,4.591,0,0,0-8.556,3.334l2.448,6.282-29.92-13.14v10.029l26.227,11.518-6.281,2.447a4.592,4.592,0,1,0,3.334,8.557l16.61-6.472a4.591,4.591,0,0,0,2.611-5.945l-6.472-16.61Z" transform="translate(-81.263 -112.016)"/><path class="a" d="M232.393,163.734l-16.322-7.168a4.591,4.591,0,0,0-3.693,8.408l6.173,2.711-27.3,10.636v9.856l30.63-11.936-2.711,6.172a4.591,4.591,0,1,0,8.408,3.693l7.168-16.322a4.591,4.591,0,0,0-2.357-6.049Z" transform="translate(-81.263 -74.781)"/><path class="a" d="M148.313,74.736a2.075,2.075,0,0,0-1.535-.638h-4.3a2.076,2.076,0,0,0-1.535.638,1.994,1.994,0,0,0-.263,2.348l2.3,3.463L141.9,89.618l2.118,5.633a.646.646,0,0,0,1.214,0l2.118-5.633-1.075-9.071,2.3-3.463A1.993,1.993,0,0,0,148.313,74.736Z" transform="translate(-56.919 -35.48)"/></g></svg>