<svg xmlns="http://www.w3.org/2000/svg" width="142.933" height="124.661" viewBox="0 0 142.933 124.661"><defs><style>.a{fill:#00a6a4;}</style></defs><g transform="translate(0 -32.725)"><g transform="translate(0 82.627)"><path class="a" d="M0,211.478v73.149H33.194V211.478Zm16.6,62.145a4.661,4.661,0,1,1,4.661-4.661A4.661,4.661,0,0,1,16.6,273.623Z" transform="translate(0 -211.478)"/></g><g transform="translate(42.516 32.725)"><path class="a" d="M252.712,83.7a10.527,10.527,0,0,0-10.527-10.527H202.905s8.671-10.167,8.671-28.69a11.758,11.758,0,1,0-23.516,0c0,12.115-10.03,17.268-17.31,27.039-6.093,8.178-6.516,17.657-15.555,17.657h-2.9V151.63c4.48,2.008,7.774,5.756,12.313,5.756h68.27a10.527,10.527,0,1,0,0-21.053h3.1a10.527,10.527,0,1,0,0-21.053h3.1a10.527,10.527,0,0,0,0-21.053h3.1A10.527,10.527,0,0,0,252.712,83.7Z" transform="translate(-152.295 -32.725)"/></g></g></svg>