<svg width="27" height="27" viewBox="0 0 27 27" fill="none" xmlns="http://www.w3.org/2000/svg">
<path fill-rule="evenodd" clip-rule="evenodd" d="M22.696 13.9724C22.696 13.2784 22.6338 12.6111 22.5181 11.9705H13.3V15.7564H18.5675C18.3406 16.9799 17.651 18.0165 16.6145 18.7105V21.1663H19.7776C21.6283 19.4623 22.696 16.9532 22.696 13.9724Z" fill="#4285F4"/>
<path fill-rule="evenodd" clip-rule="evenodd" d="M13.3002 23.5375C15.9428 23.5375 18.1583 22.6611 19.7777 21.1662L16.6146 18.7105C15.7382 19.2977 14.617 19.6447 13.3002 19.6447C10.751 19.6447 8.59328 17.923 7.82363 15.6096H4.55371V18.1455C6.1642 21.3442 9.47415 23.5375 13.3002 23.5375Z" fill="#34A853"/>
<path fill-rule="evenodd" clip-rule="evenodd" d="M7.82364 15.6096C7.62789 15.0223 7.51667 14.3951 7.51667 13.75C7.51667 13.1049 7.62789 12.4776 7.82364 11.8903V9.35449H4.55373C3.89085 10.6758 3.5127 12.1706 3.5127 13.75C3.5127 15.3293 3.89085 16.8241 4.55373 18.1454L7.82364 15.6096Z" fill="#FBBC05"/>
<path fill-rule="evenodd" clip-rule="evenodd" d="M13.3002 7.85528C14.7372 7.85528 16.0273 8.3491 17.0417 9.31896L19.8489 6.51172C18.1539 4.93238 15.9384 3.96252 13.3002 3.96252C9.47416 3.96252 6.1642 6.15581 4.55371 9.35455L7.82363 11.8904C8.59328 9.57699 10.751 7.85528 13.3002 7.85528Z" fill="#EA4335"/>
</svg>
